<?xml version="1.0" standalone="no"?>
<!DOCTYPE svg PUBLIC "-//W3C//DTD SVG 20010904//EN" "http://www.w3.org/TR/2001/REC-SVG-20010904/DTD/svg10.dtd">
<!-- Created using Karbon, part of Calligra: http://www.calligra.org/karbon -->
<svg xmlns="http://www.w3.org/2000/svg" xmlns:xlink="http://www.w3.org/1999/xlink" width="595.277pt" height="841.891pt">
<defs/>
<g id="layer0">
  <ellipse id="shape0" transform="translate(70.8663, 70.8663)" rx="240.94529930000pt" ry="240.94529930000pt" cx="240.94529930000pt" cy="240.94529930000pt" fill="#b5b5b5" fill-rule="evenodd" stroke="#000000" stroke-width="0.08503951740" stroke-linecap="square" stroke-linejoin="miter" stroke-miterlimit="1.98425540600"/>
  <ellipse id="Shape" transform="translate(302.652, 225.323)" rx="56.69301160000pt" ry="60.37805735400pt" cx="56.69301160000pt" cy="60.37805735400pt" fill="#ffffff" fill-rule="evenodd" stroke="#000000" stroke-width="0.08503951740" stroke-linecap="square" stroke-linejoin="miter" stroke-miterlimit="1.98425540600"/>
  <path id="shape1" transform="matrix(-1 0 0 1 327.347 336.767)" fill="#ffffff" fill-rule="evenodd" stroke="#000000" stroke-width="17.71656612500" stroke-linecap="square" stroke-linejoin="miter" stroke-miterlimit="1.98425540600" d="M194.991 38.4042L96.236 145.596L0 41.1388L36.6229 1.3872L95.8682 65.6939L156.392 0C164.676 11.398 177.542 24.1994 194.991 38.4042Z"/>
  <path id="shape2" transform="matrix(-1 0 0 1 612.647 336.767)" fill="#ffffff" fill-rule="evenodd" d="M0 38.5622L98.7508 146.195L194.983 41.3081L158.361 1.39291L99.1186 65.9641L38.5983 0C30.3149 11.4448 17.448 24.2989 0 38.5622Z"/>
  <rect id="shape3" transform="translate(194.174, 200.367)" fill="#10251c" fill-rule="evenodd" stroke="#000000" stroke-width="0.08503951740" stroke-linecap="square" stroke-linejoin="miter" stroke-miterlimit="1.98425540600" width="22.67720464000pt" height="267.02408463600pt"/>
  <rect id="shape4" transform="translate(298.588, 200.367)" fill="#10251c" fill-rule="evenodd" stroke="#000000" stroke-width="0.08503951740" stroke-linecap="square" stroke-linejoin="miter" stroke-miterlimit="2.00000000000" width="22.67720464000pt" height="267.02408463600pt"/>
  <rect id="shape5" transform="translate(416.237, 200.367)" fill="#10251c" fill-rule="evenodd" stroke="#000000" stroke-width="0.08503951740" stroke-linecap="square" stroke-linejoin="miter" stroke-miterlimit="2.00000000000" width="22.67720464000pt" height="267.02408463600pt"/>
  <rect id="shape6" transform="translate(523.592, 200.367)" fill="#10251c" fill-rule="evenodd" stroke="#000000" stroke-width="0.08503951740" stroke-linecap="square" stroke-linejoin="miter" stroke-miterlimit="2.00000000000" width="22.67720464000pt" height="267.02408463600pt"/>
 </g>
</svg>
